<mxfile host="app.diagrams.net" agent="Mozilla/5.0 (X11; Ubuntu; Linux x86_64; rv:142.0) Gecko/20100101 Firefox/142.0" version="28.2.1">
  <diagram name="Page-1" id="QBQxTAS_jeq5lQeGOITA">
    <mxGraphModel dx="802" dy="488" grid="1" gridSize="10" guides="1" tooltips="1" connect="1" arrows="1" fold="1" page="1" pageScale="1" pageWidth="850" pageHeight="1100" math="0" shadow="0">
      <root>
        <mxCell id="0" />
        <mxCell id="1" parent="0" />
        <mxCell id="mC9L1a-r7CWqt5lT0whb-1" value="Pitch Deck" style="rounded=0;whiteSpace=wrap;html=1;" vertex="1" parent="1">
          <mxGeometry x="110" y="220" width="120" height="60" as="geometry" />
        </mxCell>
        <mxCell id="mC9L1a-r7CWqt5lT0whb-4" value="Founder Mail" style="rounded=0;whiteSpace=wrap;html=1;" vertex="1" parent="1">
          <mxGeometry x="110" y="320" width="120" height="60" as="geometry" />
        </mxCell>
        <mxCell id="mC9L1a-r7CWqt5lT0whb-5" value="Email Updates" style="rounded=0;whiteSpace=wrap;html=1;" vertex="1" parent="1">
          <mxGeometry x="110" y="410" width="120" height="60" as="geometry" />
        </mxCell>
        <mxCell id="mC9L1a-r7CWqt5lT0whb-6" value="Call transcrits" style="rounded=0;whiteSpace=wrap;html=1;" vertex="1" parent="1">
          <mxGeometry x="120" y="500" width="120" height="60" as="geometry" />
        </mxCell>
      </root>
    </mxGraphModel>
  </diagram>
</mxfile>
